<?xml version="1.0" encoding="UTF-8"?>
<!-- Generator: visioncortex VTracer 0.6.4 -->
<svg version="1.1" xmlns="http://www.w3.org/2000/svg" width="1024" height="1024">
<path d="M0 0 C70.48 -1.06 140.2 11.63 204.46 41.06 C205.56 41.56 206.66 42.06 207.79 42.58 C224.26 50.14 240 58.61 255.46 68.06 C256.74 68.84 256.74 68.84 258.05 69.64 C280.85 83.54 302.13 99.76 322.46 117.06 C320.86 121.02 318.11 123.68 315.13 126.63 C314.58 127.18 314.03 127.73 313.46 128.3 C311.62 130.14 309.78 131.98 307.93 133.82 C306.61 135.14 305.29 136.46 303.97 137.78 C300.38 141.37 296.79 144.95 293.19 148.53 C289.44 152.27 285.69 156.01 281.94 159.76 C274.84 166.86 267.74 173.94 260.63 181.03 C252.54 189.1 244.45 197.17 236.37 205.25 C219.74 221.86 203.1 238.46 186.46 255.06 C182.24 253.48 179.33 251.54 175.83 248.69 C167.5 242.09 158.54 236.56 149.46 231.06 C148.78 230.65 148.11 230.24 147.41 229.82 C88.47 194.14 14.07 185.62 -52.43 201.28 C-101.47 213.53 -145.18 238.08 -181.54 273.06 C-182.33 273.81 -182.33 273.81 -183.12 274.57 C-190.15 281.34 -196.54 288.36 -202.54 296.06 C-203.33 297.05 -204.12 298.03 -204.94 299.04 C-250.27 356.06 -269.91 430.37 -261.95 502.41 C-255.62 554.58 -235.08 604.43 -201.54 645.06 C-201.07 645.64 -200.59 646.22 -200.1 646.82 C-188.78 660.43 -176.59 673.24 -162.54 684.06 C-161.28 685.07 -160.02 686.07 -158.76 687.07 C-98.66 734.46 -23.09 752.8 52.46 744.06 C106.21 737.51 156.48 719 197.46 683.06 C198.38 682.27 199.3 681.47 200.24 680.65 C205.43 676.09 210.05 671.36 214.46 666.06 C215.21 665.19 215.97 664.32 216.76 663.42 C241.08 635.12 253.94 601.73 263.46 566.06 C180.63 566.06 97.8 566.06 12.46 566.06 C12.46 506 12.46 445.94 12.46 384.06 C157 384.06 301.54 384.06 450.46 384.06 C456.22 410.6 456.22 410.6 457.71 421.81 C457.87 422.95 458.03 424.09 458.19 425.27 C459.72 436.4 460.61 447.35 460.66 458.59 C460.67 459.77 460.67 460.95 460.68 462.16 C460.7 465.96 460.7 469.76 460.71 473.56 C460.71 475.51 460.71 475.51 460.71 477.5 C460.69 498.19 460.03 518.53 457.46 539.06 C457.29 540.45 457.12 541.84 456.95 543.22 C450.09 599.02 434.5 654.14 408.48 704.09 C407.37 706.22 406.28 708.37 405.2 710.52 C389.53 741.2 369.39 769.95 346.01 795.26 C344.05 797.41 342.15 799.57 340.26 801.77 C335.95 806.72 331.35 811.36 326.71 816 C325.82 816.89 324.93 817.77 324.02 818.68 C318.9 823.76 313.78 828.63 308.04 833.02 C305.68 834.88 303.47 836.84 301.23 838.85 C296.73 842.88 292.05 846.58 287.21 850.19 C286.34 850.83 285.48 851.47 284.59 852.13 C204.72 911.13 107.88 940.85 -57.59 935.32 C-149.4 921.37 -236.47 881.13 -304.6 817.77 C-306.82 815.7 -309.1 813.71 -311.4 811.73 C-315.64 808.03 -319.64 804.12 -323.61 800.12 C-324.28 799.46 -324.94 798.8 -325.63 798.11 C-329.58 794.15 -333.35 790.08 -337 785.85 C-338.89 783.67 -340.84 781.55 -342.79 779.44 C-348.38 773.23 -353.47 766.68 -358.54 760.06 C-359.12 759.32 -359.7 758.57 -360.29 757.8 C-369.68 745.61 -378.39 733.11 -386.54 720.06 C-386.95 719.42 -387.35 718.78 -387.77 718.12 C-405.33 690.07 -419.28 660.14 -430.54 629.06 C-430.89 628.11 -431.24 627.15 -431.61 626.17 C-447.57 582.22 -456.82 533.85 -457.54 487.06 C-457.56 485.88 -457.59 484.7 -457.61 483.48 C-458.72 412.1 -446.22 341.23 -416.54 276.06 C-415.84 274.51 -415.84 274.51 -415.12 272.92 C-404.95 250.73 -393.32 229.24 -379.54 209.06 C-379 208.26 -378.45 207.46 -377.89 206.63 C-365.31 188.24 -351.69 170.9 -336.69 154.43 C-335.31 152.9 -333.94 151.37 -332.58 149.82 C-327.58 144.13 -322.33 138.74 -316.98 133.37 C-316.27 132.66 -315.57 131.95 -314.84 131.21 C-310.23 126.63 -305.47 122.3 -300.54 118.06 C-299.39 117.04 -298.23 116.02 -297.08 114.99 C-232.23 57.76 -151 20.27 0 0 Z " fill="#34A853" transform="translate(499.54443359375,41.93798828125)"/>
<path d="M0 0 C70.48 -1.06 140.2 11.63 204.46 41.06 C205.56 41.56 206.66 42.06 207.79 42.58 C224.26 50.14 240 58.61 255.46 68.06 C256.74 68.84 256.74 68.84 258.05 69.64 C280.85 83.54 302.13 99.76 322.46 117.06 C320.86 121.02 318.11 123.68 315.13 126.63 C314.58 127.18 314.03 127.73 313.46 128.3 C311.62 130.14 309.78 131.98 307.93 133.82 C306.61 135.14 305.29 136.46 303.97 137.78 C300.38 141.37 296.79 144.95 293.19 148.53 C289.44 152.27 285.69 156.01 281.94 159.76 C274.84 166.86 267.74 173.94 260.63 181.03 C252.54 189.1 244.45 197.17 236.37 205.25 C219.74 221.86 203.1 238.46 186.46 255.06 C182.24 253.48 179.33 251.54 175.83 248.69 C167.5 242.09 158.54 236.56 149.46 231.06 C148.78 230.65 148.11 230.24 147.41 229.82 C88.47 194.14 14.07 185.62 -52.43 201.28 C-101.47 213.53 -145.18 238.08 -181.54 273.06 C-182.33 273.81 -182.33 273.81 -183.12 274.57 C-190.15 281.34 -196.54 288.36 -202.54 296.06 C-203.33 297.05 -204.12 298.03 -204.94 299.04 C-250.3 356.1 -269.83 430.32 -261.96 502.39 C-259.93 519.26 -256.6 535.82 -251.46 552.03 C-250.54 555.06 -250.54 555.06 -250.54 557.06 C-251.84 558.28 -251.84 558.28 -253.67 559.64 C-254.34 560.16 -255.02 560.67 -255.72 561.2 C-256.47 561.75 -257.21 562.3 -257.98 562.87 C-259.55 564.06 -261.13 565.24 -262.7 566.43 C-263.51 567.03 -264.32 567.64 -265.15 568.26 C-268.78 570.99 -272.38 573.74 -275.98 576.5 C-276.68 577.03 -277.37 577.56 -278.08 578.11 C-283.37 582.14 -288.61 586.22 -293.86 590.31 C-299.76 594.92 -305.7 599.46 -311.71 603.94 C-315.28 606.61 -318.81 609.33 -322.35 612.06 C-326.82 615.51 -331.31 618.94 -335.79 622.37 C-336.86 623.19 -336.86 623.19 -337.96 624.03 C-340.89 626.27 -343.82 628.51 -346.75 630.75 C-354.9 636.98 -363.04 643.21 -371.17 649.47 C-375.84 653.06 -380.53 656.64 -385.22 660.22 C-388.6 662.81 -391.98 665.4 -395.34 668.01 C-395.93 668.46 -396.51 668.92 -397.12 669.38 C-398.68 670.6 -400.25 671.82 -401.81 673.04 C-404.31 674.89 -406.84 676.51 -409.54 678.06 C-440.03 621.03 -456.55 551.67 -457.54 487.06 C-457.56 485.88 -457.59 484.7 -457.61 483.48 C-458.72 412.1 -446.22 341.23 -416.54 276.06 C-415.84 274.51 -415.84 274.51 -415.12 272.92 C-404.95 250.73 -393.32 229.24 -379.54 209.06 C-379 208.26 -378.45 207.46 -377.89 206.63 C-365.31 188.24 -351.69 170.9 -336.69 154.43 C-335.31 152.9 -333.94 151.37 -332.58 149.82 C-327.58 144.13 -322.33 138.74 -316.98 133.37 C-316.27 132.66 -315.57 131.95 -314.84 131.21 C-310.23 126.63 -305.47 122.3 -300.54 118.06 C-299.39 117.04 -298.23 116.02 -297.08 114.99 C-232.23 57.76 -151 20.27 0 0 Z " fill="#EA4334" transform="translate(499.54443359375,41.93798828125)"/>
<path d="M0 0 C144.54 0 289.08 0 438 0 C443.77 26.54 443.77 26.54 445.25 37.75 C445.49 39.46 445.49 39.46 445.73 41.2 C447.27 52.34 448.16 63.29 448.2 74.53 C448.21 75.71 448.22 76.89 448.22 78.1 C448.24 81.9 448.25 85.7 448.25 89.5 C448.25 90.8 448.25 92.1 448.25 93.44 C448.24 114.13 447.58 134.47 445 155 C444.83 156.39 444.66 157.77 444.5 159.16 C437.63 214.96 422.04 270.07 396.02 320.02 C394.92 322.16 393.83 324.31 392.74 326.46 C377.07 357.14 356.94 385.89 333.55 411.2 C331.57 413.37 329.63 415.57 327.7 417.8 C323.88 422.17 319.93 426.4 315.88 430.56 C314.84 431.67 314.84 431.67 313.79 432.79 C313.11 433.48 312.44 434.17 311.74 434.88 C311.14 435.5 310.54 436.13 309.93 436.77 C308 438 308 438 305.43 437.82 C302.09 436.7 300.08 434.83 297.44 432.5 C296.37 431.58 295.31 430.66 294.24 429.75 C293.7 429.29 293.16 428.82 292.61 428.35 C289.21 425.5 285.61 422.9 282.04 420.26 C269.75 411.12 257.74 401.58 245.65 392.17 C237.25 385.63 228.85 379.1 220.41 372.62 C216.26 369.43 212.13 366.22 208 363 C200.69 357.31 193.35 351.64 186 346 C179.97 341.36 179.97 341.36 178.18 339.98 C174.94 337.48 171.68 335.01 168.4 332.55 C167.23 331.67 167.23 331.67 166.03 330.77 C164.49 329.6 162.94 328.44 161.38 327.29 C160.33 326.5 160.33 326.5 159.26 325.69 C158.63 325.22 158 324.75 157.35 324.26 C156.91 323.85 156.46 323.43 156 323 C156 322.34 156 321.68 156 321 C157.74 319.72 159.55 318.53 161.38 317.38 C167.23 313.56 172.64 309.48 178 305 C178.53 304.57 179.06 304.13 179.6 303.69 C218.32 271.94 238.07 229.4 251 182 C168.17 182 85.34 182 0 182 C0 121.94 0 61.88 0 0 Z " fill="#4185F3" transform="translate(512,426)"/>
<path d="M0 0 C3.74 2.15 7.11 4.54 10.5 7.19 C11.65 8.08 12.8 8.97 13.95 9.87 C14.59 10.36 15.23 10.86 15.88 11.37 C19.99 14.54 24.12 17.67 28.25 20.81 C36.82 27.34 45.38 33.88 53.94 40.42 C56.75 42.57 59.56 44.72 62.37 46.87 C64.49 48.49 66.61 50.12 68.73 51.74 C71.62 53.94 74.5 56.15 77.39 58.36 C83.68 63.17 89.98 67.98 96.25 72.81 C102.81 77.86 109.4 82.88 115.98 87.89 C126.75 96.1 137.51 104.31 148.25 112.56 C149.25 113.33 150.24 114.09 151.27 114.88 C153.86 116.89 156.44 118.94 159 121 C158.77 121.9 158.54 122.8 158.3 123.73 C157.18 128.15 156.08 132.57 155 137 C154.79 137.85 154.58 138.69 154.37 139.56 C142.27 189.05 142.62 241.19 158.08 289.96 C159 293 159 293 159 295 C157.71 296.21 157.71 296.21 155.88 297.58 C155.2 298.09 154.52 298.61 153.82 299.14 C153.08 299.69 152.33 300.24 151.56 300.81 C149.99 302 148.42 303.18 146.84 304.37 C146.04 304.97 145.23 305.58 144.39 306.2 C140.77 308.93 137.16 311.68 133.56 314.44 C132.87 314.97 132.18 315.5 131.46 316.04 C126.18 320.08 120.93 324.16 115.69 328.25 C109.78 332.86 103.84 337.4 97.84 341.88 C94.27 344.55 90.73 347.27 87.2 350 C82.72 353.45 78.24 356.88 73.75 360.31 C72.68 361.13 72.68 361.13 71.59 361.97 C68.66 364.21 65.72 366.45 62.79 368.69 C54.64 374.91 46.5 381.15 38.38 387.41 C33.7 391 29.01 394.58 24.32 398.16 C20.94 400.74 17.56 403.33 14.2 405.95 C13.62 406.4 13.03 406.85 12.43 407.32 C10.86 408.54 9.3 409.76 7.73 410.98 C5.23 412.83 2.7 414.45 0 416 C-30.48 358.97 -47.01 289.61 -48 225 C-48.03 223.23 -48.03 223.23 -48.06 221.42 C-49.24 145.77 -35.9 67.38 0 0 Z " fill="#FABB05" transform="translate(90,304)"/>
</svg>
